<svg ref="kappaCloud" class="kappa-cloud" xmlns="http://www.w3.org/2000/svg" width="500" height="500" viewBox="-15 30 530 400">
    <circle id="kappaBody" class="kappa-body"  data-name="KappaBody" cx="250" cy="220" r="120" fill="#91ffab" stroke="#707070" stroke-width="7"/>
    <g id="kappaFrame" class="kappa-frame-set" data-name="Frame" fill="none" stroke="#707070" stroke-width="12">
      <circle id="kappaFrame01" class="kappa-animation-group-2" data-name="KappaFrame01" cx="330" cy="205" r="88"/>
      <circle id="kappaFrame02" class="kappa-animation-group-1" data-name="KappaFrame02" cx="405" cy="225" r="55"/>
      <circle id="kappaFrame03" class="kappa-animation-group-3" data-name="KappaFrame03" cx="450" cy="260" r="33"/>
      <circle id="kappaFrame04" class="kappa-animation-group-2" data-name="KappaFrame04" cx="410" cy="290" r="55"/>
      <circle id="kappaFrame05" class="kappa-animation-group-1" data-name="KappaFrame05" cx="375" cy="330" r="55"/>
      <circle id="kappaFrame06" class="kappa-animation-group-3" data-name="KappaFrame06" cx="290" cy="340" r="55"/>
      <circle id="kappaFrame07" class="kappa-animation-group-2" data-name="KappaFrame07" cx="200" cy="310" r="88"/>
      <circle id="kappaFrame08" class="kappa-animation-group-1" data-name="KappaFrame08" cx="105" cy="315" r="55"/>
      <circle id="kappaFrame09" class="kappa-animation-group-2" data-name="KappaFrame09" cx="115" cy="240" r="88"/>
      <circle id="kappaFrame10" class="kappa-animation-group-3" data-name="KappaFrame10" cx="140" cy="170" r="55"/>
      <circle id="kappaFrame11" class="kappa-animation-group-2" data-name="KappaFrame11" cx="240" cy="170" r="88"/>
    </g>
    <g id="kappaElement" class="kappa-element-set" data-name="Element" fill="#91ffab">
      <circle id="kappaElement01" class="kappa-animation-group-2" data-name="KappaElement01" cx="330" cy="205" r="86"/>
      <circle id="kappaElement02" class="kappa-animation-group-1" data-name="KappaElement02" cx="405" cy="225" r="53"/>
      <circle id="kappaElement03" class="kappa-animation-group-3" data-name="KappaElement03" cx="450" cy="260" r="31"/>
      <circle id="kappaElement04" class="kappa-animation-group-2" data-name="KappaElement04" cx="410" cy="290" r="53"/>
      <circle id="kappaElement05" class="kappa-animation-group-1" data-name="KappaElement05" cx="375" cy="330" r="53"/>
      <circle id="kappaElement06" class="kappa-animation-group-3" data-name="KappaElement06" cx="290" cy="340" r="53"/>
      <circle id="kappaElement07" class="kappa-animation-group-2" data-name="KappaElement07" cx="200" cy="310" r="86"/>
      <circle id="kappaElement08" class="kappa-animation-group-1" data-name="KappaElement08" cx="105" cy="315" r="53"/>
      <circle id="kappaElement09" class="kappa-animation-group-2" data-name="KappaElement09" cx="115" cy="240" r="86"/>
      <circle id="kappaElement10" class="kappa-animation-group-3" data-name="KappaElement10" cx="140" cy="170" r="53"/>
      <circle id="kappaElement11" class="kappa-animation-group-2" data-name="KappaElement11" cx="240" cy="170" r="86"/>
      <!-- element only -->
      <circle id="kappaElement12" class="kappa-element" data-name="KappaElement12" cx="225" cy="260" r="70"/>
      <circle id="kappaElement13" class="kappa-element" data-name="KappaElement13" cx="350" cy="260" r="70"/>
    </g>
    
    <g id="mouth" class="mouth" data-name="Mouth" transform="translate(185 225)" fill="#f8fd77" stroke="#707070" stroke-width="7">
      <path d="M 60.58860397338867 52.93674087524414 L 60.54637145996094 52.93674087524414 C 52.85412216186523 52.9356575012207 45.95738983154297 52.57670593261719 40.04775619506836 51.86982345581055 C 34.00065612792969 51.14652252197266 28.77598762512207 50.03262329101562 24.51887130737305 48.55908966064453 C 20.0181884765625 47.00123977661133 16.40867233276367 44.97397613525391 13.79055500030518 42.53357315063477 C 10.95212173461914 39.88782501220703 9.200005531311035 36.71934127807617 8.582921981811523 33.11614227294922 C 8.260822296142578 31.23545837402344 8.477088928222656 29.28317451477051 9.225705146789551 27.31355857849121 C 9.865638732910156 25.62987518310547 10.90463829040527 23.92370796203613 12.31382179260254 22.24244117736816 C 14.44547176361084 19.69924163818359 17.41677093505859 17.19879150390625 21.14520454406738 14.81057453155518 C 24.6617546081543 12.55805778503418 28.67960548400879 10.51007461547852 33.08712005615234 8.72352409362793 C 37.53335571289062 6.921290874481201 42.11298751831055 5.492540836334229 46.69882202148438 4.476974487304688 C 51.56465530395508 3.399390935897827 56.21673965454102 2.839890956878662 60.52585601806641 2.814040899276733 C 60.63188934326172 2.81340765953064 60.73987197875977 2.813074350357056 60.84652328491211 2.813074350357056 C 65.36787414550781 2.813074350357056 70.43732452392578 3.368824243545532 75.91405487060547 4.464874267578125 C 81.09885406494141 5.50250768661499 86.5028076171875 7.014940738677979 91.54168701171875 8.838674545288086 C 96.70560455322266 10.70767402648926 101.5060348510742 12.91339111328125 105.4240188598633 15.21737384796143 C 109.8306732177734 17.80872344970703 113.1584854125977 20.52020835876465 115.315071105957 23.27647399902344 C 116.5206756591797 24.81734085083008 117.3740081787109 26.39577484130859 117.8513565063477 27.96797370910645 C 118.404655456543 29.79025840759277 118.4639892578125 31.60684013366699 118.027702331543 33.36725616455078 C 117.0863876342773 37.16550827026367 114.8138198852539 40.45587539672852 111.2731552124023 43.14695739746094 C 108.1553726196289 45.51662445068359 103.9527740478516 47.4725227355957 98.78213500976562 48.96030807495117 C 94.03677368164062 50.32574081420898 88.29583740234375 51.35108947753906 81.71875762939453 52.0079231262207 C 75.5472412109375 52.62424087524414 68.43801879882812 52.93674087524414 60.58860397338867 52.93674087524414 Z"/>
    </g>
    <circle id="leftEye" class="eye" data-name="LeftEye" cx="180" cy="200" r="12" fill="#656565"/>
    <circle id="rightEye" class="eye" data-name="RightEye" cx="310" cy="200" r="12" fill="#656565"/>
    <g id="kappaHead" class="kappa-head" data-name="Head">
      <g id="kappa-plate" class="kappa-plate" data-name="Plate" transform="translate(140 70)" fill="#c38f2e" stroke="#707070" stroke-width="7">
        <path d="M 138.5193634033203 91.44252777099609 L 110.7023010253906 84.48041534423828 L 109.8525161743164 84.26773071289062 L 109.0027389526367 84.48041534423828 L 81.18567657470703 91.44252777099609 L 65.52492523193359 79.68366241455078 L 64.59111022949219 78.98250579833984 L 63.42339324951172 78.98250579833984 L 32.93476867675781 78.98250579833984 L 32.93476867675781 67.74854278564453 L 32.93476867675781 65.01657104492188 L 30.2845516204834 64.35325622558594 L 7.975748538970947 58.7697639465332 L 19.09589385986328 50.42022705078125 L 22.82348823547363 47.62135314941406 L 19.09589385986328 44.82247924804688 L 7.975748538970947 36.47294235229492 L 30.2845516204834 30.88944625854492 L 32.93476867675781 30.22613525390625 L 32.93476867675781 27.49416542053223 L 32.93476867675781 16.26019668579102 L 63.42339324951172 16.26019668579102 L 64.59111022949219 16.26019668579102 L 65.52492523193359 15.55904102325439 L 81.18568420410156 3.800175189971924 L 109.0028610229492 10.7622594833374 L 109.8526458740234 10.97494697570801 L 110.7024230957031 10.7622594833374 L 138.5193328857422 3.800185203552246 L 154.1801452636719 15.55907154083252 L 155.1139526367188 16.26019668579102 L 156.2816772460938 16.26019668579102 L 186.770263671875 16.26019668579102 L 186.770263671875 27.49397850036621 L 186.770263671875 30.2259464263916 L 189.4204864501953 30.88925933837891 L 211.7302398681641 36.47294616699219 L 200.6095886230469 44.82275772094727 L 196.8819580078125 47.62160491943359 L 200.6095581054688 50.42047882080078 L 211.7293243408203 58.76975631713867 L 189.4204864501953 64.35325622558594 L 186.770263671875 65.01657104492188 L 186.770263671875 67.74854278564453 L 186.770263671875 78.98250579833984 L 156.2818603515625 78.98250579833984 L 155.1141510009766 78.98250579833984 L 154.1803588867188 79.68363189697266 L 138.5193634033203 91.44252777099609 Z"/>
      </g>
      <ellipse id="kappa-crystal" class="kappa-crystal" data-name="Crystal" cx="250" cy="115" rx="55" ry="22" fill="#fff" stroke="#707070" stroke-width="7"/>
    </g>
</svg>
